<svg width="27" height="16" viewBox="0 0 27 16" fill="none" xmlns="http://www.w3.org/2000/svg">
<path d="M25.042 9C25.5943 9 26.042 8.55228 26.042 8C26.042 7.44772 25.5943 7 25.042 7L25.042 9ZM0.293255 7.2929C-0.0972691 7.68342 -0.097269 8.31658 0.293255 8.70711L6.65722 15.0711C7.04774 15.4616 7.68091 15.4616 8.07143 15.0711C8.46195 14.6805 8.46195 14.0474 8.07143 13.6569L2.41458 8L8.07143 2.34315C8.46195 1.95262 8.46195 1.31946 8.07143 0.928934C7.68091 0.538409 7.04774 0.538409 6.65722 0.928934L0.293255 7.2929ZM25.042 7L1.00036 7L1.00036 9L25.042 9L25.042 7Z" fill="white"/>
</svg>
