<svg width="27" height="16" viewBox="0 0 27 16" fill="none" xmlns="http://www.w3.org/2000/svg">
<path d="M1 7C0.447715 7 0 7.44772 0 8C0 8.55228 0.447715 9 1 9V7ZM25.7487 8.70711C26.1393 8.31658 26.1393 7.68342 25.7487 7.29289L19.3848 0.928932C18.9943 0.538408 18.3611 0.538408 17.9706 0.928932C17.58 1.31946 17.58 1.95262 17.9706 2.34315L23.6274 8L17.9706 13.6569C17.58 14.0474 17.58 14.6805 17.9706 15.0711C18.3611 15.4616 18.9943 15.4616 19.3848 15.0711L25.7487 8.70711ZM1 9H25.0416V7H1V9Z" fill="white"/>
</svg>
